<svg width="1200" height="800" viewBox="0 0 1200 800" fill="none" xmlns="http://www.w3.org/2000/svg">
  <defs>
    <linearGradient id="bg" x1="140" y1="80" x2="1020" y2="700" gradientUnits="userSpaceOnUse">
      <stop stop-color="#0F172A"/>
      <stop offset="0.55" stop-color="#11294A"/>
      <stop offset="1" stop-color="#0B3A5B"/>
    </linearGradient>
    <linearGradient id="ring" x1="310" y1="210" x2="900" y2="560" gradientUnits="userSpaceOnUse">
      <stop stop-color="#8B5CF6"/>
      <stop offset="0.45" stop-color="#22C55E"/>
      <stop offset="1" stop-color="#38BDF8"/>
    </linearGradient>
    <linearGradient id="node" x1="0" y1="0" x2="1" y2="1">
      <stop stop-color="#F8FAFC"/>
      <stop offset="1" stop-color="#CBD5E1"/>
    </linearGradient>
    <filter id="glow" x="208" y="120" width="784" height="560" filterUnits="userSpaceOnUse">
      <feGaussianBlur stdDeviation="28" result="blur"/>
      <feColorMatrix in="blur" type="matrix" values="1 0 0 0 0  0 1 0 0 0.5  0 0 1 0 0.9  0 0 0 0.35 0"/>
    </filter>
  </defs>

  <rect width="1200" height="800" rx="40" fill="url(#bg)"/>
  <circle cx="600" cy="400" r="220" stroke="url(#ring)" stroke-width="2" opacity="0.45"/>
  <circle cx="600" cy="400" r="156" stroke="url(#ring)" stroke-width="2" opacity="0.28"/>
  <circle cx="600" cy="400" r="92" stroke="url(#ring)" stroke-width="2" opacity="0.18"/>
  <g filter="url(#glow)">
    <circle cx="600" cy="400" r="126" fill="#8B5CF6" opacity="0.16"/>
  </g>

  <g stroke="url(#ring)" stroke-width="6" stroke-linecap="round" opacity="0.92">
    <path d="M600 176V284"/>
    <path d="M600 516V624"/>
    <path d="M376 400H484"/>
    <path d="M716 400H824"/>
    <path d="M440 240L512 312"/>
    <path d="M760 240L688 312"/>
    <path d="M440 560L512 488"/>
    <path d="M760 560L688 488"/>
  </g>

  <g fill="url(#node)">
    <circle cx="600" cy="176" r="22"/>
    <circle cx="600" cy="624" r="22"/>
    <circle cx="376" cy="400" r="22"/>
    <circle cx="824" cy="400" r="22"/>
    <circle cx="440" cy="240" r="22"/>
    <circle cx="760" cy="240" r="22"/>
    <circle cx="440" cy="560" r="22"/>
    <circle cx="760" cy="560" r="22"/>
  </g>

  <g fill="#F8FAFC">
    <rect x="536" y="336" width="128" height="128" rx="26" fill="#E2E8F0" opacity="0.1"/>
    <path d="M548 365C548 356.716 554.716 350 563 350H602C610.284 350 617 356.716 617 365V390C617 398.284 610.284 405 602 405H563C554.716 405 548 398.284 548 390V365Z" opacity="0.96"/>
    <path d="M583 427C583 418.716 589.716 412 598 412H637C645.284 412 652 418.716 652 427V452C652 460.284 645.284 467 637 467H598C589.716 467 583 460.284 583 452V427Z" opacity="0.86"/>
    <path d="M548 427C548 418.716 554.716 412 563 412H574C582.284 412 589 418.716 589 427V452C589 460.284 582.284 467 574 467H563C554.716 467 548 460.284 548 452V427Z" opacity="0.72"/>
  </g>

  <text x="600" y="710" text-anchor="middle" fill="#E2E8F0" font-family="Arial, sans-serif" font-size="54" font-weight="700" letter-spacing="10">
    LLM
  </text>
</svg>
